<svg width="18" height="18" viewBox="0 0 18 18" fill="none" xmlns="http://www.w3.org/2000/svg">
<path d="M5.25 2.25H12.75C13.5784 2.25 14.25 2.92157 14.25 3.75V14.25C14.25 15.0784 13.5784 15.75 12.75 15.75H5.25C4.42157 15.75 3.75 15.0784 3.75 14.25V3.75C3.75 2.92157 4.42157 2.25 5.25 2.25Z" stroke-width="1.125" stroke-linecap="round" stroke-linejoin="round" stroke="white"/>
<path d="M6 5.25H12M6.375 8.25H6.3825M9 8.25H9.0075M11.625 8.25H11.6325M6.375 10.875H6.3825M9 10.875H9.0075M11.625 10.875H11.6325M6.375 13.5H6.3825M9 13.5H9.0075M11.625 13.5H11.6325" stroke-width="1.125" stroke-linecap="round" stroke-linejoin="round" stroke="white"/>
</svg>
